<?xml version="1.0" encoding="utf-8"?>
<!-- Generator: Adobe Illustrator 24.0.3, SVG Export Plug-In . SVG Version: 6.00 Build 0)  -->
<svg version="1.1" id="Layer_1" xmlns="http://www.w3.org/2000/svg" xmlns:xlink="http://www.w3.org/1999/xlink" x="0px" y="0px"
	 viewBox="0 0 576 180" style="enable-background:new 0 0 576 180;" xml:space="preserve">
<style type="text/css">
	.st0{fill:#3DAE2B;}
</style>
<g id="XMLID_1_">
	<g id="XMLID_113_">
		<path id="XMLID_132_" d="M115.77,92.24h6.81l-3.3-26.87L115.77,92.24z M107.31,55.04h23.54l11.76,57.45h-17.53l-1.47-9.09h-9.27
			l-1.26,9.09H95.36L107.31,55.04z"/>
		<rect id="XMLID_131_" x="142.51" y="55.04" width="16.34" height="57.45"/>
		<rect id="XMLID_130_" x="162.8" y="55.04" width="16.3" height="57.45"/>
		<polygon id="XMLID_129_" points="195.77,55.04 233.12,55.04 233.12,68.69 223.22,68.69 223.22,112.49 206.08,112.49 206.08,68.69 
			195.77,68.69 		"/>
		<polygon id="XMLID_128_" points="235.44,55.04 252.17,55.04 252.17,76.12 253.62,72.81 255.27,70.34 257.33,68.69 260.01,67.65 
			263.11,67.43 266.41,67.85 269.29,69.28 271.57,71.38 273.22,74.47 274.25,77.97 274.47,82.31 274.47,112.49 257.95,112.49 
			257.95,86.24 257.73,83.97 257.11,82.72 256.29,81.9 255.05,81.69 253.62,81.9 252.8,82.72 252.17,84.36 251.96,86.86 
			251.96,112.49 235.44,112.49 		"/>
		<path id="XMLID_125_" d="M277.26,68.69h16.3v43.8h-16.3V68.69z M277.26,64.53v-9.5h16.3v9.5H277.26z"/>
		<polygon id="XMLID_124_" points="297.35,68.69 313.47,68.69 313.47,76.12 315.12,72.81 316.96,70.34 319.24,68.69 321.92,67.65 
			325.02,67.43 328.33,67.85 331.2,69.28 333.48,71.38 335.13,74.47 336.16,77.97 336.38,82.31 336.38,112.49 319.64,112.49 
			319.64,86.24 319.64,83.97 319.02,82.72 318.21,81.9 316.96,81.69 315.52,81.9 314.71,82.72 314.09,84.36 313.87,86.86 
			313.87,112.49 297.35,112.49 		"/>
		<path id="XMLID_121_" d="M359.81,85.62l-0.22-1.65l-0.63-1.03l-0.82-0.63l-1.02-0.19l-1.25,0.19l-0.81,0.63l-0.62,1.03l-0.21,1.65
			v8.06l0.21,1.85l0.62,1.03l0.81,0.62l1.25,0.22l1.02-0.22l0.82-0.62l0.63-1.03l0.22-1.85V85.62z M360.62,68.69h15.89v44.61
			l-0.4,3.93l-1.03,3.51l-1.88,2.9l-2.46,2.46l-2.87,1.88l-3.71,1.44l-3.94,0.85l-4.53,0.19l-3.92-0.19l-3.32-0.44l-3.1-1.03
			l-2.46-1.44l-1.88-2.05l-1.65-2.9l-0.81-3.32l-0.41-4.34h15.46l0.44,2.28l1.02,1.25l1.84,0.62l1.24-0.41l1.03-1.05l0.41-1.63
			l0.22-1.65v-9.72l-1.67,2.88l-1.86,2.28l-2.25,1.24l-2.7,0.82l-2.68,0.22l-3.31-0.41l-2.46-1.25l-2.06-2.06l-1.47-3.1l-1.03-3.93
			l-0.63-4.97l-0.19-6.19l0.19-5.99l0.63-4.97l0.84-3.71l1.03-3.09l1.66-2.28l2.05-1.44l2.25-0.82l2.91-0.22l3.09,0.22l2.68,1.23
			l2.28,1.87l2.06,2.7l1.44,3.3V68.69z"/>
		<path id="XMLID_118_" d="M490.08,68.69h16.31v43.8h-16.31V68.69z M490.08,64.53v-9.5h16.31v9.5H490.08z"/>
		<rect id="XMLID_117_" x="509.99" y="55.04" width="16.3" height="57.45"/>
		<path id="XMLID_114_" d="M544.79,94.09l0.19,2.27l0.62,1.67l0.85,0.81l1.44,0.4l1.21-0.4l1.06-1.03l0.6-1.67l0.22-2.05v-7.45
			l-0.22-2.28l-0.6-1.43l-1.06-1.03l-1.21-0.21l-1.26,0.21l-1.03,1.03l-0.62,1.43l-0.19,2.28V94.09z M551.37,105.25h-0.19
			l-1.47,3.09l-1.84,2.5l-2.29,1.66l-2.46,0.81l-2.91,0.41l-2.47-0.18l-2.27-0.85l-2.06-1.44l-1.66-1.84l-1.23-2.68l-1.05-3.53
			l-0.59-4.13l-0.21-5.19v-6.8l0.21-5.16l0.59-4.13l1.05-3.52l1.23-2.69l1.66-1.85l2.06-1.47l2.49-0.6l2.46-0.22l3.31,0.42
			l2.87,1.65l2.47,2.28l1.66,3.32V55.04h16.91v57.45h-16.29V105.25z"/>
	</g>
	<g id="XMLID_2_">
		<path id="XMLID_3_" class="st0" d="M277,137.19h13.25c3,0,5.42,0.78,7.28,2.33c1.86,1.55,2.79,3.75,2.79,6.61
			c0,2.34-0.67,4.34-2,5.99c-1.33,1.65-3.33,2.95-5.99,3.9c3.33,0.53,5.39,2.64,6.19,6.35l2.51,11.71h-9.41l-1.38-10.2
			c-0.25-1.73-0.66-2.99-1.23-3.78c-0.57-0.79-1.45-1.19-2.63-1.19h-0.79v15.17H277V137.19z M285.59,144.36v7.9h1.88
			c1.34,0,2.36-0.4,3.07-1.19c0.7-0.79,1.06-1.8,1.06-3.01c0-1.23-0.31-2.16-0.92-2.78c-0.62-0.62-1.55-0.92-2.8-0.92H285.59z"/>
		<path id="XMLID_7_" class="st0" d="M323.72,171.93c-3.23,1.82-6.24,2.72-9.03,2.72c-3.64,0-6.59-1.22-8.85-3.67
			c-2.27-2.45-3.4-5.59-3.4-9.41c0-3.7,1.07-6.84,3.22-9.41c2.14-2.57,5.01-3.86,8.59-3.86c3.18,0,5.72,1.1,7.62,3.3
			c1.91,2.2,2.86,5.16,2.86,8.86v2.09h-13.56c0.39,1.69,1.05,2.96,1.99,3.81c0.94,0.85,2.15,1.27,3.63,1.27
			c1.15,0,2.2-0.26,3.15-0.77c0.95-0.51,2.22-1.43,3.79-2.75V171.93z M317.37,158.08v-0.85c0-1.15-0.3-2.12-0.9-2.93
			c-0.6-0.81-1.35-1.22-2.26-1.22c-1.06,0-1.88,0.41-2.46,1.24c-0.58,0.83-0.91,2.08-1,3.75H317.37z"/>
		<path id="XMLID_12_" class="st0" d="M329,137.19h8.35v13.88c0.81-0.93,1.68-1.63,2.6-2.09c0.92-0.46,1.91-0.69,2.95-0.69
			c1.99,0,3.63,0.76,4.9,2.29c1.28,1.52,1.92,3.4,1.92,5.62v17.87h-8.41V157.5c0-1.36-0.55-2.04-1.67-2.04
			c-0.76,0-1.33,0.37-1.72,1.11c-0.39,0.74-0.58,1.85-0.58,3.33v14.17H329V137.19z"/>
		<path id="XMLID_17_" class="st0" d="M356.15,150.33c2.87-1.36,5.6-2.04,8.17-2.04c1.9,0,3.56,0.33,4.98,1
			c1.42,0.67,2.61,1.75,3.58,3.25c0.97,1.5,1.45,3.41,1.45,5.74v8.46c0,2.45,0.5,4.89,1.51,7.32h-8.41c-0.32-0.7-0.57-1.5-0.77-2.39
			c-0.83,0.98-1.7,1.73-2.6,2.23c-0.91,0.5-1.86,0.75-2.87,0.75c-1.96,0-3.71-0.78-5.25-2.34s-2.31-3.46-2.31-5.7
			c0-5.04,4.34-8.12,13.03-9.23c-0.19-0.92-0.67-1.6-1.43-2.06c-0.76-0.46-1.8-0.69-3.12-0.69c-1.94,0-3.93,0.79-5.98,2.38V150.33z
			 M366.68,161.57c-3.53,0.32-5.29,1.64-5.29,3.95c0,0.87,0.26,1.6,0.79,2.2c0.53,0.6,1.15,0.9,1.88,0.9c0.85,0,1.49-0.36,1.94-1.09
			c0.45-0.73,0.67-1.64,0.67-2.73V161.57z"/>
		<path id="XMLID_24_" class="st0" d="M379.71,137.19h8.27v14.19c0.83-1.04,1.7-1.81,2.63-2.32c0.92-0.51,1.89-0.76,2.89-0.76
			c2.55,0,4.62,1.26,6.21,3.78c1.59,2.52,2.39,5.47,2.39,8.86c0,3.82-0.94,7.07-2.82,9.73c-1.88,2.66-4.11,3.99-6.68,3.99
			c-0.95,0-1.86-0.23-2.73-0.69c-0.87-0.46-1.7-1.14-2.49-2.04l-2.27,2.14h-5.39V137.19z M387.99,166.16
			c0.35,0.46,0.71,0.8,1.09,1.03c0.38,0.23,0.78,0.34,1.2,0.34c0.95,0,1.72-0.56,2.33-1.67c0.61-1.11,0.91-2.66,0.91-4.64
			c0-1.82-0.26-3.24-0.78-4.25c-0.52-1.01-1.23-1.52-2.14-1.52c-0.86,0-1.51,0.39-1.95,1.18c-0.44,0.79-0.66,1.97-0.66,3.56V166.16z
			"/>
		<path id="XMLID_28_" class="st0" d="M410.67,136.58c1.15,0,2.19,0.41,3.12,1.24c0.93,0.83,1.4,1.9,1.4,3.23
			c0,1.25-0.45,2.31-1.33,3.17c-0.89,0.86-1.95,1.29-3.19,1.29c-1.27,0-2.34-0.44-3.21-1.33c-0.87-0.89-1.31-1.94-1.31-3.16
			c0-1.23,0.45-2.28,1.35-3.15C408.4,137.02,409.45,136.58,410.67,136.58z M406.41,148.88h8.41v25.2h-8.41V148.88z"/>
		<path id="XMLID_39_" class="st0" d="M420.48,137.19h8.41v36.88h-8.41V137.19z"/>
		<path id="XMLID_41_" class="st0" d="M438.85,136.58c1.15,0,2.19,0.41,3.12,1.24c0.93,0.83,1.4,1.9,1.4,3.23
			c0,1.25-0.45,2.31-1.33,3.17c-0.89,0.86-1.95,1.29-3.19,1.29c-1.27,0-2.34-0.44-3.21-1.33c-0.87-0.89-1.31-1.94-1.31-3.16
			c0-1.23,0.45-2.28,1.35-3.15C436.58,137.02,437.64,136.58,438.85,136.58z M434.59,148.88H443v25.2h-8.41V148.88z"/>
		<path id="XMLID_44_" class="st0" d="M450.7,141.29h6.98v7.59h4.18v6.16h-3.81v10.31c0,1.59,0.63,2.38,1.9,2.38
			c0.62,0,1.25-0.24,1.9-0.71v6.82c-1.55,0.55-3.13,0.82-4.73,0.82c-2.61,0-4.52-0.62-5.75-1.86c-1.23-1.24-1.84-3.17-1.84-5.78
			v-11.98h-3.09v-6.16h3.57L450.7,141.29z"/>
		<path id="XMLID_46_" class="st0" d="M467.19,150.33c2.87-1.36,5.6-2.04,8.17-2.04c1.9,0,3.56,0.33,4.98,1
			c1.42,0.67,2.61,1.75,3.58,3.25c0.97,1.5,1.45,3.41,1.45,5.74v8.46c0,2.45,0.5,4.89,1.51,7.32h-8.41c-0.32-0.7-0.57-1.5-0.77-2.39
			c-0.83,0.98-1.7,1.73-2.6,2.23c-0.91,0.5-1.86,0.75-2.87,0.75c-1.96,0-3.71-0.78-5.25-2.34s-2.31-3.46-2.31-5.7
			c0-5.04,4.34-8.12,13.03-9.23c-0.19-0.92-0.67-1.6-1.43-2.06c-0.76-0.46-1.8-0.69-3.12-0.69c-1.94,0-3.93,0.79-5.98,2.38V150.33z
			 M477.71,161.57c-3.53,0.32-5.29,1.64-5.29,3.95c0,0.87,0.26,1.6,0.79,2.2c0.53,0.6,1.15,0.9,1.88,0.9c0.85,0,1.49-0.36,1.94-1.09
			c0.45-0.73,0.67-1.64,0.67-2.73V161.57z"/>
		<path id="XMLID_49_" class="st0" d="M491.88,141.29h6.98v7.59h4.18v6.16h-3.81v10.31c0,1.59,0.63,2.38,1.9,2.38
			c0.62,0,1.25-0.24,1.9-0.71v6.82c-1.55,0.55-3.13,0.82-4.73,0.82c-2.61,0-4.52-0.62-5.75-1.86c-1.23-1.24-1.84-3.17-1.84-5.78
			v-11.98h-3.09v-6.16h3.57L491.88,141.29z"/>
		<path id="XMLID_51_" class="st0" d="M511.61,136.58c1.15,0,2.19,0.41,3.12,1.24c0.93,0.83,1.4,1.9,1.4,3.23
			c0,1.25-0.45,2.31-1.33,3.17c-0.89,0.86-1.95,1.29-3.19,1.29c-1.27,0-2.34-0.44-3.21-1.33c-0.87-0.89-1.31-1.94-1.31-3.16
			c0-1.23,0.45-2.28,1.35-3.15C509.33,137.02,510.39,136.58,511.61,136.58z M507.35,148.88h8.41v25.2h-8.41V148.88z"/>
		<path id="XMLID_136_" class="st0" d="M531.73,148.3c3.47,0,6.32,1.15,8.54,3.44c2.22,2.29,3.33,5.5,3.33,9.62
			c0,3.91-1.07,7.11-3.2,9.58c-2.13,2.48-5.03,3.71-8.7,3.71c-3.67,0-6.52-1.22-8.57-3.67c-2.05-2.45-3.07-5.57-3.07-9.36
			c0-3.95,1.07-7.16,3.21-9.62C525.42,149.53,528.24,148.3,531.73,148.3z M531.81,154.75c-1.04,0-1.82,0.56-2.35,1.68
			c-0.53,1.12-0.79,2.8-0.79,5.04c0,2.2,0.26,3.86,0.78,4.97c0.52,1.11,1.3,1.67,2.34,1.67c1.06,0,1.85-0.55,2.37-1.65
			c0.52-1.1,0.78-2.75,0.78-4.96c0-2.26-0.26-3.94-0.78-5.06C533.63,155.31,532.85,154.75,531.81,154.75z"/>
		<path id="XMLID_139_" class="st0" d="M555.81,151.49c0.74-1.07,1.58-1.88,2.53-2.41c0.95-0.53,2-0.79,3.17-0.79
			c2,0,3.66,0.73,4.99,2.18c1.33,1.45,2,3.26,2,5.43v18.16h-8.41v-16.42c0-1.43-0.53-2.14-1.59-2.14c-0.74,0-1.33,0.39-1.77,1.16
			c-0.44,0.78-0.66,1.86-0.66,3.25v14.14h-8.3v-25.2h7.22L555.81,151.49z"/>
	</g>
	<path id="path4689_1_" d="M418.48,34.38c-0.34-0.34-0.24-0.81,0.22-1.06c0.36-0.19,2.58-2.03,6.54-5.43
		c4.96-4.25,8.03-6.77,9.47-7.78c3.43-2.4,7.43-4.05,11.99-4.96c2.91-0.58,6.43-0.82,9.22-0.64c2.21,0.14,2.62,0.13,3.28-0.09
		c0.29-0.1,1.06-0.5,1.71-0.9c1.41-0.87,1.71-1.03,2.73-1.43c1.34-0.52,2.04-0.65,4.35-0.77c1.29-0.07,1.44-0.12,2.48-0.75
		c1.19-0.72,2.18-1.44,4.2-3.07c0.94-0.75,1.92-1.53,2.18-1.72c0.26-0.2,0.99-0.78,1.62-1.3c1.43-1.18,2.43-1.87,3.37-2.33
		l0.74-0.35l21.08-0.02c14.93-0.02,21.1,0,21.14,0.07c0.22,0.36-0.51,1.18-1.51,1.67l-0.65,0.32l-1.83,0.06
		c-4.3,0.13-9.12,0.05-16.5-0.27c-2.13-0.09-4.77-0.21-5.87-0.25c-1.1-0.04-2.67-0.12-3.49-0.18c-0.82-0.05-2.36-0.08-3.44-0.06
		l-1.96,0.04l-1.02,0.35c-3.43,1.16-6.16,2.74-11.51,6.67c-0.96,0.71-2.03,1.44-2.38,1.63c-1.15,0.63-2.06,1.63-1.93,2.14
		c0.06,0.24,0.51,0.54,0.79,0.54c0.56,0,3.33-1.33,4.88-2.34c0.47-0.31,1.02-0.64,1.23-0.73s0.78-0.56,1.27-1.02
		c1.16-1.09,1.6-1.3,2.25-1.08l0.28,0.1l-0.06,0.65c-0.12,1.37-0.61,2.91-1.45,4.6c-0.57,1.15-1.96,3.43-2.85,4.69
		c-1.01,1.44-2.49,2.72-3.4,2.96c-1.13,0.3-1.12,0.43,0.02,1.92c0.17,0.23,0.32,0.47,0.32,0.53c0,0.08,0.05,0.09,0.15,0.05
		c0.69-0.29,1.51-0.57,1.92-0.65c0.83-0.16,1.78,0.01,2.09,0.38c0.13,0.15,0.1,0.16-1.08,0.3c-2.82,0.34-4.91,1.9-5.67,4.24
		c-0.08,0.25-0.17,0.43-0.21,0.41c-0.16-0.1-0.63-1.23-0.67-1.59c-0.05-0.52,0.21-1.08,0.67-1.42l0.33-0.25l-0.42-0.35
		c-0.23-0.19-0.7-0.72-1.03-1.17c-0.49-0.65-0.69-0.85-1-0.99c-0.81-0.36-1.73-0.05-3.28,1.09c-1.38,1.02-2.4,1.45-2.96,1.23
		c-0.32-0.12-0.31-0.38,0.06-1.41c0.32-0.9,0.36-1.2,0.18-1.46c-0.1-0.14-0.2-0.16-0.68-0.14c-0.48,0.02-0.62,0-0.92-0.18
		c-0.43-0.25-0.83-0.79-1.08-1.43c-0.11-0.28-0.33-0.6-0.55-0.82c-0.52-0.5-0.78-0.9-1.52-2.36c-0.38-0.75-0.8-1.44-1.01-1.67
		c-0.32-0.35-0.43-0.41-0.97-0.53c-2-0.43-4.2-0.36-6.46,0.21c-3.07,0.77-5.74,1.81-9.16,3.56c-2.99,1.53-5.28,2.92-10.25,6.25
		c-1.76,1.17-3.37,2.24-3.57,2.36c-0.21,0.13-0.7,0.49-1.1,0.8c-1.43,1.13-2.02,1.42-3.14,1.56c-1.04,0.13-1.54,0.43-3.3,1.97
		c-0.93,0.81-2.11,1.65-2.44,1.74C418.75,34.58,418.65,34.54,418.48,34.38L418.48,34.38z M473.09,23.39
		c0.02-0.27-0.02-0.41-0.19-0.61c-0.27-0.32-0.46-0.37-0.8-0.23c-0.27,0.11-0.35,0.37-0.2,0.61c0.16,0.24,0.75,0.62,0.95,0.6
		C473.03,23.74,473.06,23.69,473.09,23.39L473.09,23.39z"/>
	<g id="XMLID_106_">
		<polygon id="XMLID_109_" points="367.2,38.56 367.47,38.79 367.7,38.77 367.68,38.51 		"/>
		<polygon id="XMLID_108_" points="383.31,55.11 383.28,54.86 383,54.66 383.02,54.88 		"/>
		
			<rect id="XMLID_107_" x="372.65" y="41.44" transform="matrix(0.995 -0.0997 0.0997 0.995 -2.2877 37.3701)" width="0.22" height="0.26"/>
	</g>
	<g id="XMLID_90_">
		<polygon id="XMLID_105_" points="336.11,51.01 336.41,51.46 336.36,50.99 336.34,50.74 336.31,50.48 336.54,50.22 336.68,49.47 
			336.61,48.73 336.59,48.52 336.32,48.03 335.79,47.85 335.53,47.62 335.51,47.37 335.25,47.39 335.01,47.2 334.73,46.97 
			334.25,47.02 334,47.04 334.02,47.3 333.8,47.32 333.82,47.54 333.84,47.78 333.87,48.04 333.89,48.28 333.67,48.55 333.95,48.78 
			334.47,49.21 334.95,49.38 335.26,49.61 335.57,50.56 335.85,50.79 336.08,50.76 		"/>
		<polygon id="XMLID_104_" points="333.85,45.6 334.16,46.06 334.38,46.03 334.11,45.58 		"/>
		<polygon id="XMLID_103_" points="333.3,44.91 333.28,44.66 333.5,44.38 333.73,44.36 333.71,44.13 333.68,43.88 333.92,43.63 
			333.89,43.37 333.89,43.37 333.86,43.12 333.82,42.64 334.27,42.37 334.25,42.12 333.72,41.68 333.21,41.48 332.94,41.24 
			331.93,41.13 330.98,41.22 330.72,41.25 330.24,41.3 330.05,41.53 329.82,41.82 329.87,42.3 329.61,42.32 329.44,43.07 
			329.73,43.54 330.04,44.02 330.83,44.65 331.34,44.86 331.84,45.06 332.34,45.23 332.89,45.44 333.13,45.68 333.32,45.13 		"/>
		<polygon id="XMLID_102_" points="335.61,43.46 335.86,43.44 335.58,43.21 335.3,42.98 335.07,43 335.09,43.25 335.36,43.49 		"/>
		<polygon id="XMLID_101_" points="339.16,51.94 339.18,52.15 339.21,52.4 338.95,52.43 338.75,52.71 338.49,52.73 338.51,52.96 
			338.8,53.19 339.03,53.17 339.26,52.89 339.42,52.38 339.65,52.1 339.38,51.91 		"/>
		<polygon id="XMLID_100_" points="335.99,54.7 335.99,54.7 336.09,53.21 		"/>
		<polygon id="XMLID_99_" points="336.65,46.54 336.7,47.03 336.96,47.22 337.26,47.7 337.54,47.91 337.72,47.65 337.7,47.4 
			337.95,47.37 338.17,46.88 338.14,46.63 338.12,46.39 337.83,46.16 337.53,45.72 337.3,45.49 337.07,45.76 337.09,45.98 
			337.12,46.23 336.86,46.26 		"/>
	</g>
	<g id="XMLID_62_">
		<polygon id="XMLID_63_" points="415,94.3 413.96,91.62 412.72,89.34 411.07,87.67 409,86.64 406.94,85.84 404.66,85.4 402.42,85 
			400.36,84.59 398.29,84.36 396.63,83.75 395.39,83.15 394.57,82.12 394.14,80.65 394.57,78.37 395.39,77.15 397.26,76.94 
			397.86,76.94 398.48,77.15 399.11,77.56 399.51,78.18 399.92,78.99 400.36,80.02 400.36,81.27 414.59,81.27 414.18,77.34 
			413.14,74.25 411.68,71.77 409.43,69.91 406.94,68.69 403.63,67.85 400.13,67.43 396.2,67.43 391.27,67.65 387.15,68.47 
			385.44,69.32 385.28,69.52 385.57,69.96 385.62,70.46 385.67,70.95 385.95,71.15 386.05,72.14 386.59,72.82 386.61,73.05 
			387.32,75.2 388.2,76.59 389.13,78.69 389.44,79.4 389.52,80.12 389.8,80.33 390.06,80.81 390.34,81.01 390.67,81.72 
			390.94,82.18 391.22,82.41 391.53,82.86 391.82,83.56 392.38,84.25 392.7,84.96 392.98,85.17 393.53,85.85 393.8,86.3 
			394.13,87.01 394.44,87.47 394.68,87.7 394.7,87.95 394.97,88.14 395.26,88.63 395.56,89.09 395.88,89.54 396.11,89.76 396.13,90 
			396.41,90.23 396.43,90.45 396.66,90.42 396.68,90.68 396.96,90.91 396.99,91.14 397.52,91.56 397.81,92.05 398.15,92.76 
			398.68,93.19 399.2,93.62 399.48,93.85 399.53,94.32 399.78,94.53 400.08,95.01 400.59,95.19 400.88,95.67 401.16,96.13 
			401.41,96.11 401.68,96.55 401.71,96.81 402.24,96.99 402.49,97.22 402.51,97.44 402.8,97.67 403.05,97.64 403.1,98.12 
			403.6,98.34 403.83,98.31 404.11,98.54 404.62,98.97 405.12,99.15 405.68,99.6 406.19,99.78 406.68,99.98 406.97,100.19 
			407.19,100.17 407.48,100.4 407.75,100.62 407.97,100.6 408.76,101 409.76,101.39 411.3,101.97 411.8,102.17 412.05,102.15 
			413.03,102.28 414.07,102.66 414.32,102.89 414.5,103.17 414.46,103.37 413.9,103.42 413.13,103.27 408.11,102.03 407.62,101.86 
			405.08,100.89 404.54,100.43 401.13,98.1 400.85,97.86 395.67,92.76 395.09,91.81 391.2,87.08 387.19,81.32 386.92,80.87 
			386.59,80.16 383.47,73.36 383.16,72.91 382.17,71.63 381.56,72.19 379.91,74.87 378.87,78.18 378.68,82.12 379.09,85.62 
			379.91,88.53 381.56,90.77 383.44,92.43 385.48,93.68 387.74,94.71 390.24,95.52 392.49,95.96 394.57,96.55 396.63,97.17 
			398.07,98.03 398.89,99.24 399.33,100.71 399.11,101.93 398.48,102.96 397.45,103.81 396.02,104.02 395.18,104.02 394.57,103.81 
			393.95,103.39 393.55,102.77 393.12,102.15 392.92,101.52 392.92,100.71 392.92,99.67 378.07,99.67 378.46,103.39 379.49,106.28 
			381.15,108.77 383.22,110.62 385.68,111.86 388.36,112.68 391.27,113.3 393.95,113.71 396.63,113.71 401.39,113.53 405.29,112.68 
			408.37,111.46 411.07,109.8 412.93,107.52 414.18,104.83 415,101.52 415.2,97.81 		"/>
	</g>
	<g id="XMLID_14_">
		<g id="XMLID_53_">
			<polygon id="XMLID_61_" points="338.93,42.38 339.14,42.1 338.9,42.13 			"/>
			<path id="XMLID_56_" d="M385.93,69.04l-0.58-0.92l0.26-0.03l-0.03-0.25l-0.28-0.18l-0.05-0.51l-0.02-0.23l0.26-0.03l0.2-0.28
				l-0.23,0.02l-0.3-0.45l0.26-0.03l-0.05-0.49l-0.3-0.45l0.28,0.19l-0.02-0.21l-0.03-0.25l-0.03-0.26l-0.26,0.03l-0.02-0.23
				l0.26-0.03l0.25,0.21l-0.27-0.46l-0.03-0.26l-0.28-0.19l-0.03-0.25l-0.32-0.71l-0.02-0.22l0.25-0.02l0.02,0.22l0.03,0.25
				l0.23-0.28l-0.02-0.22l-0.28-0.23l-0.05-0.48l-0.29-0.45l0.25-0.02l-0.03-0.26l-0.03-0.25l-0.02-0.23l-0.27-0.24l-0.02-0.21
				l-0.03-0.26l-0.03-0.26l-0.28-0.46l-0.02-0.21l-0.03-0.27l-0.28-0.22l-0.02-0.23l0.26-0.03l0.23-0.02l-0.26-0.23l-0.03-0.25
				l-0.26,0.03l-0.02-0.23l-0.03-0.25l-0.26,0.03l0.23-0.26l0.02,0.24l0.28,0.23l0.25,0.21l-0.02-0.23l-0.03-0.25l-0.25-0.21
				l-0.02-0.25l0.25,0.22l-0.56-0.67l0.26-0.03l-0.28-0.23l-0.02-0.23l-0.03-0.26l-0.26,0.03l-0.02-0.25l-0.22,0.02l-0.02-0.23
				l-0.03-0.25l-0.28-0.2l-0.26-0.23l-0.56-0.43l0.28,0.19l0.25-0.02l0.03,0.26l0.23-0.02l0.28,0.23l0.22-0.02l0.23-0.28l-0.48,0.05
				l-0.03-0.26l0.22-0.02l0.26-0.03l0.26-0.03l-0.28-0.19l-0.26,0.03l-0.25-0.23l-0.28-0.23l-0.02-0.23l0.26-0.03l-0.03-0.26
				l-0.02-0.21l-0.05-0.52L382.51,52l-0.28-0.23l0.23-0.25l-0.03-0.25l-0.28-0.23l-0.25-0.21l-0.03-0.26l0.2-0.28l-0.25-0.19
				l-0.03-0.26l-0.02-0.23l-0.25,0.02l-0.29-0.23l-0.03-0.26l-0.24-0.19l-0.28-0.23l-0.25-0.21l-0.28-0.23l-0.78-0.39l0.98-0.1
				l-0.28-0.24l-0.03-0.25l-0.53-0.44l0.23-0.02l-0.25-0.19l-0.28-0.23l-0.26-0.23l-0.25,0.03L378.72,46l-0.25,0.03l-0.03-0.26
				l-0.24-0.19l-0.54-0.21l-0.23,0.02l-0.03-0.25l-0.5-0.18l-0.53-0.21l-0.49,0.05l-0.21,0.02l-0.27-0.19l0.25-0.03l0.47-0.05
				l0.51,0.17l0.25-0.02l0.48-0.05l0.49-0.05l-0.51-0.17l-0.29-0.23l0.26-0.03l0.23-0.02l-0.51-0.2l-0.24-0.21l0.48-0.05l-0.77-0.43
				l-0.53-0.42l-0.75-0.16l-0.27,0.03l-0.51-0.21l-0.24-0.24l-0.25,0.03l-0.28-0.19l-0.51-0.2l-0.47,0.05l-0.49-0.18l-0.74,0.07
				l-0.26,0.03l-0.24-0.24l0.5,0.21l0.2-0.28l0.26-0.03l0.47-0.05l-0.03-0.26l-0.21,0.02l-0.26,0.03l-0.28-0.19l-1.47-0.11
				l0.23-0.02l0.26-0.03l0.26-0.03l-0.03-0.26l-0.28-0.2l-0.26,0.03l-0.25-0.22l-0.25,0.03l0.23-0.25l-0.28-0.23l0.25-0.03
				l-0.75-0.18l-0.5-0.18l0.45-0.3l-0.5-0.17l-0.54-0.2l-0.47,0.05l0.03,0.25l-0.74,0.07l-0.24-0.23l-0.26,0.03l-0.25-0.24
				l-0.02-0.23l0.23-0.02l0.02,0.23l0.23-0.26l0.21-0.02l0.26-0.03l0.48-0.05l-0.51-0.2l-0.26,0.03l-0.21,0.02l0.19-0.28l-0.47,0.05
				l-0.25-0.19l0.46-0.3l-0.28-0.2l-0.23,0.02l-0.26,0.03l-0.25,0.03l-0.48,0.05l-0.49,0.05l-0.25,0.03l-0.21,0.02l-0.51,0.05
				l-0.24,0.02l-0.25,0.02l0.22-0.28l0.24-0.02l0.51-0.05l0.18-0.28l-0.02-0.21l-0.21,0.02l-0.26,0.03l-0.05-0.49l-0.23,0.25
				l-0.26-0.2l-0.22,0.25l-0.05-0.48l-0.48,0.05l0.03,0.26l-0.25,0.02l-0.24,0.02l-0.25,0.03l-0.21,0.02l-0.24,0.25l-0.22,0.29
				L360.92,37l-0.45,0.26l0.2-0.23l0.22-0.29l-0.25,0.02l-0.2,0.28l-0.26,0.03l0.43-0.54l-0.23,0.02l-0.23,0.25l-0.25,0.02
				l0.22-0.25l-0.73,0.07l-0.26,0.03l-0.17,0.51l-0.03-0.26l0.17-0.5l-0.22,0.02l-0.03-0.26l-0.45,0.3l-0.28-0.23l-0.23,0.28
				l-0.23,0.02l-0.26,0.03l-0.2,0.28l-0.23,0.25l-0.25,0.03l-0.2,0.28l0.02,0.21l-0.25,0.03l-0.02-0.21l-0.25-0.24L356.04,37
				l-0.03-0.26l-0.69,0.56l-0.02-0.23l-0.25,0.03l0.02,0.23l-0.26,0.03l-0.02-0.23l-0.03-0.26l-0.19,0.28l-0.28-0.23l-0.26-0.23
				l0.03,0.26l-0.2,0.51l-0.23,0.29l-0.2,0.23l-0.27-0.19l-0.28-0.46l-0.23,0.25l-0.21,0.5l-0.19,0.28l-0.23,0.28l-0.23,0.02
				l0.02,0.23l0.03,0.26l-0.22,0.24l-0.28-0.19l-0.03-0.26l-0.2,0.28l-0.25,0.02l-0.24,0.02L350.6,39l0.24-0.02l0.22-0.25
				l-0.25,0.02l-0.26-0.23l0.21-0.29l0.2-0.5l-0.22,0.29l-0.47,0.26l-0.23,0.29l-0.03-0.26l0.24-0.24l-0.03-0.26l-0.71,0.34
				l-0.03-0.26l-0.26,0.03l-0.24-0.2l-0.45,0.27L348.29,38l-0.29-0.2l0.51-0.05l-0.03-0.26l-0.74,0.07l-0.45,0.3l-0.05-0.51
				l-0.02-0.21l-0.29-0.24l-0.07-0.73l-0.52-0.43l-0.5-0.2l-0.25,0.02l-0.99,0.1l-0.47,0.05l-0.71,0.32l-0.65,0.55l-0.25,0.03
				l0.03,0.25l-0.26,0.03l-0.2,0.25l-0.2,0.54l0.02,0.21l-0.25-0.19l-0.03-0.26l-0.25,0.03l-0.28-0.23l-0.02-0.23l-0.21,0.25
				l-0.26,0.03l-0.25,0.02l-0.48,0.05l-0.17,0.54l-0.23,0.24l0.03,0.26l0.03,0.26l-0.28-0.23l-0.19,0.28l-0.03-0.26l-0.03-0.26
				L338.73,38l-0.24,0.02l-0.23,0.24l-0.23,0.28l0.03,0.26l0.01,0.07l-0.07,0l-0.17-0.3l-0.23,0.28l-0.03-0.26l-0.23,0.02l0.03,0.26
				l-0.27,0.03l-0.25,0.03l-0.19,0.25l-0.23,0.29l-0.09,0.22l-0.14,0.01l-0.21,0.29L335.74,40l-0.47,0.05l-0.28-0.24l0.33,0.72
				l-0.54-0.43l-0.25,0.03l0.03,0.26l0.02,0.23l0.03,0.26l0.27,0.19l0.24-0.02l0.03,0.26l-0.99-0.16l0.03,0.26l0.03,0.25l0.02,0.23
				l0.29,0.46l0.01,0.02l0.22-0.02L335,42.3l-0.28-0.23l0.23-0.29l0.24-0.02l0.28,0.24l-0.03-0.26l-0.02-0.23l0.26-0.03l0.02,0.23
				l0.22-0.02l-0.26-0.46l0.22-0.02l-0.03-0.26l0.26-0.03l0.03,0.26l0.03,0.25l0.24-0.02l0.26-0.03l-0.07-0.72l0.27,0.19l0.24,0.24
				l-0.21,0.02l0.03,0.25l0.02,0.23l0.24,0.24l0.03,0.25l0.02,0.21l-0.21,0.02l0.03,0.26l-0.28-0.23l0.05,0.49l-0.26,0.03
				l-0.02-0.23l-0.26-0.23l-0.26,0.03l-0.22,0.02l0.03,0.26l0.24,0.21l0.03,0.25l0.3,0.46l0.19-0.51l0.28,0.23l0.3,0.45l0.02,0.23
				l-0.27-0.21l-0.26,0.03l0.28,0.2l0.03,0.26l0.28,0.23l0.02,0.21l0.24,0.24l0.22-0.29l-0.25,0.03l-0.05-0.47l0.56,0.41l0.18-0.49
				l-0.25-0.23l-0.02-0.23l-0.02-0.25l-0.02-0.23l-0.01-0.12l0.24,0.1L338,42.96l0.54,0.68l0.23-0.27l-0.02-0.23l-0.05-0.51
				l-0.05-0.49l0.23-0.24l0.16-0.77l0.26-0.03l0.02,0.23l0.03,0.26l-0.26,0.03l0.28,0.23l0.22-0.02l0.05,0.47l0.2-0.5l-0.03-0.25
				l-0.03-0.26l0.48-0.05l0.03,0.26l0.29,0.23l0.02,0.21l0.42-0.51l0.26-0.03l0.26,0.23l-0.03-0.25l0.26-0.03l0.25-0.03l0.03,0.25
				l0.2-0.27l0.28,0.23l0.22-0.02l-0.18,0.49l1.41-0.4l0.05,0.49l-0.23,0.02l-0.27,0.03l-0.23-0.21l0.02,0.23l0.26,0.49l0.02,0.23
				l0.02,0.25l-0.16,0.51l-0.23,0.28l-0.05-0.51l-1.52-0.33l-0.21,0.27l-0.26,0.03l0.02,0.23l-0.22,0.28l0.03,0.25l0.05,0.48
				l-0.19,0.28l0.02,0.23l-0.24,0.28l-0.23,0.02l0.02,0.21l0.03,0.26l-0.26,0.03l-0.4,0.79l-0.67,0.8l-0.25,0.03l0.02,0.24
				l0.07,0.72l0.12,1.21l0.28,0.23l0.05,0.49l0.3,0.44l0.03,0.25l0.05,0.49l-0.23,0.29l0.02,0.21l0.23-0.23l-0.2,0.49l0.25-0.03
				l0.24-0.02l0.48-0.05l0.03,0.26l0.02,0.23l-0.22,0.02l0.05,0.47l-0.26,0.03L340,53.07l0.02,0.21l-0.2,0.53l-0.23,0.26l-0.45,0.31
				l0.26-0.03l0.02,0.21l-0.46,0.31l-0.29-0.23l-0.23,0.28l-0.21,0.02l-0.28-0.23L337.74,55l-0.21,0.28l-0.47,0.05l-0.69,0.56
				l-0.23,0.28l0.27,0.2l0.53,0.42l0.52,0.47l0.26-0.03l0.24-0.02l0.23-0.28l0.46-0.05l0.77,0.18l0.49,0.17l0.28,0.23l0.27,0.2
				l0.26,0.23l0.26-0.03l0.77,0.4l0.28,0.5l0.02,0.23l0.26-0.03l0.24,0.23l0.25-0.02l0.02,0.23l0.02,0.25l0.31,0.46l0.03,0.25
				l0.79,0.4l0.75,0.41l0.29,0.23l0.3,0.46l0.03,0.25l0.26,0.46l0.29,0.24l0.23-0.02l0.56,0.43l0.47-0.05l0.49-0.05l0.51,0.43
				l0.29,0.23l0.47-0.05l0.49-0.05l0.27,0.18l-0.22,0.29l-0.21,0.25l-0.23,0.28l-0.44,0.3l-0.46,0.26l-0.23,0.29l0.03,0.25
				l-0.18,0.21l-0.55-0.14l-0.18,0.51l-0.23,0.25l-0.23,0.28l0.05,0.49l0.05,0.47l0.03,0.26l0.28,0.23l0.28,0.2l0.25,0.23l0.25-0.02
				l0.23-0.02l0.03,0.25l-0.2,0.24l0.23-0.02l0.26-0.03l0.47-0.05l0.27-0.03l0.22-0.24l-0.05-0.51l1.14-0.86l0.22-0.02l0.25-0.03
				l0.49-0.05l0.03,0.26l0.03,0.25l0.27,0.21l0.24,0.24l0.29,0.23l0.22-0.02l0.28,0.19l0.55,0.7l0.26-0.03l0.23-0.28l0.19-0.51
				l-0.05-0.47l1.13-0.86l0.26-0.03l0.22-0.02l1.21-0.12l-0.05-0.48l-0.27-0.46l-0.27-0.23l0.72-0.07l1.49,0.11l1.49,0.34l1.49,0.07
				l0.72-0.07l0.27,0.49l0.28,0.2l-0.38,1.03l-0.2,0.51l0.03,0.26l0.27,0.19l0.2-0.24l-0.6,1.03l0.25,0.23l0.23-0.28l0.45-0.3
				l0.05,0.51l-0.24,0.24l0.05,0.49l0.23-0.26l0.25-0.03l-0.03-0.25l0.46-0.26l0.26-0.03l-0.19,0.72l0.26-0.03l0.23-0.02l0.48-0.05
				l0.23-0.26l1.06-1.58l0.26-0.03l0.03,0.26l0.42-0.52l-0.63,1.03l0.28,0.23l0.19-0.28l0.46-0.31l0.05,0.51l-0.22,0.23l0.05,0.49
				l0.22-0.26l0.25-0.03l-0.03-0.25l0.24-0.24l0.48,0.16l-0.2,0.51l0.25-0.03l0.26-0.03l0.48-0.05l0.2-0.26l1.06-1.58l0.46-0.52
				l0.46-0.31l0.45-0.28l0.49-0.05l0.23-0.28l0.03,0.26l0.28,0.2l0.22-0.02l2.92-0.03l0.26-0.03l0.28,0.23l0.25,0.19l0.03,0.26
				l0.28,0.2l0.28,0.23l0.74,0.4l0.78,0.41l0.26-0.03l0.23-0.02l0.24-0.26l0.44-0.3l0.34,0.72l0.27,0.45l0.31,0.48l1.77,1.52
				l3.1-2.11l0.2-0.17l-0.03-0.26l0.26-0.03l0.05,0.51l0.2-0.27L385.93,69.04z M352.72,65.28l-0.24-0.23l-0.26,0.03l-0.26,0.03
				l0.28,0.23l0.29,0.2l-0.67,0.8l-0.24,0.28l-0.27-0.48l0.17-0.5l0.43-0.53l0.47-0.53l0.49,0.17l0.03,0.26L352.72,65.28z"/>
			<polygon id="XMLID_55_" points="339.34,44.06 339.36,44.31 339.17,44.81 338.9,44.57 338.67,44.86 338.95,45.09 339.27,45.76 
				339.53,45.99 339.5,45.74 339.48,45.52 339.59,44.03 339.5,43.07 339.67,42.54 339.64,42.31 339.47,42.82 			"/>
			<polygon id="XMLID_54_" points="338.38,44.15 338.36,43.89 338.1,43.92 338.13,44.18 338.15,44.43 338.46,44.88 338.67,44.86 
				338.6,44.13 			"/>
		</g>
		<g id="XMLID_15_">
			<path id="XMLID_36_" d="M87.08,7.28l1.99,0.11l0.79,0.47l0.19,0.17c0,0,0,0,0,0c-0.05,0.08-0.05,0.18,0.02,0.25l0.41,0.48
				c0.01,0.02,0.03,0.03,0.05,0.04l0.44,0.27c0.03,0.02,0.06,0.03,0.1,0.03l0.91,0.05c0.04,0,0.07,0,0.1-0.02l0.16-0.07l0,0.05
				l-0.24,0.42C91.94,9.61,91.95,9.69,92,9.76c0.05,0.07,0.12,0.1,0.21,0.08l0.9-0.19l5.49,0.29l0.16,0.35
				c0.03,0.07,0.1,0.12,0.17,0.12l0.13,0.01l0.17,0.19c0.04,0.04,0.09,0.06,0.14,0.07l0.65,0.03l0.61,0.21l1.3,0.76
				c0.02,0.01,0.06,0.02,0.09,0.02l0.24,0.01c0.06,0,0.11-0.02,0.15-0.06l0.21-0.2c0.04-0.03,0.06-0.08,0.06-0.14l0-0.03
				c0.01,0,0.02,0,0.03,0c0.11,0.01,0.21-0.08,0.21-0.19l0-0.04l0.04,0c0.03,0,0.06,0,0.08-0.01l0.2-0.08
				c0.01,0.02,0.01,0.03,0.03,0.04l0.41,0.5c0.02,0.02,0.04,0.04,0.06,0.05l0.44,0.23l0.89,0.53l0.84,0.47l0.21,0.2
				c0.03,0.04,0.08,0.06,0.13,0.06l0.59,0.03l0.55,0.63l0.41,0.92c0.01,0.02,0.02,0.04,0.04,0.05l0.69,0.72l0.34,0.2l-0.01,0.11
				c0,0.06,0.02,0.11,0.06,0.15l0.14,0.14l-0.03,0.6c0,0.05,0.01,0.11,0.05,0.14l0.24,0.27l0.23,0.2c0.03,0.04,0.08,0.05,0.13,0.05
				c0.05,0,0.1-0.01,0.14-0.05l0.23-0.18c0.07-0.05,0.09-0.13,0.07-0.21l-0.15-0.6l0.14-0.14c0,0,0.01-0.01,0.01-0.01l0.08,0.21
				c0.01,0.02,0.02,0.04,0.04,0.06l0.22,0.25c0.04,0.04,0.09,0.06,0.14,0.07l0.03,0l-0.02,0.45c0,0.02,0,0.04,0,0.06l0.4,1.45
				l0.38,0.66l-0.01,0.18c0,0.06,0.02,0.11,0.06,0.15l0.67,0.72l0.62,0.48l0.16,0.41c0.01,0.02,0.03,0.05,0.04,0.07l0.44,0.45
				l0.16,0.21l0.18,0.63l-0.02,0.42c0,0.03,0,0.06,0.01,0.09l0.19,0.45c0.01,0.02,0.03,0.04,0.04,0.06l0.55,0.61l-0.18,0.31
				c-0.03,0.06-0.03,0.13,0,0.2c0.04,0.06,0.1,0.1,0.17,0.1l0.17,0l1.16,0.3l0.48,0.03c0.03,0,0.07,0,0.11-0.02l1.61-0.83
				c0.07-0.04,0.12-0.12,0.11-0.2c-0.01-0.08-0.07-0.16-0.15-0.18l-0.9-0.26l-0.25-0.08l1.29,0.06l1.35,0.31
				c0.02,0,0.05,0.01,0.08,0l1.14-0.18c0.09-0.01,0.16-0.08,0.17-0.17c0.01-0.09-0.04-0.18-0.12-0.22l-0.64-0.29l0.73,0.04
				l0.13,0.15c0.04,0.04,0.09,0.07,0.15,0.07l0.03,0l0,0.04c-0.01,0.11,0.08,0.21,0.19,0.21l2.46,0.13l1.08,0.25l0.86,0.52
				l1.77,0.75c0.09,0.05,0.21,0,0.26-0.08l0.26-0.42c0.02-0.03,0.03-0.06,0.03-0.1l0.01-0.13l0.06-0.06l0.32,0.18
				c0.03,0.02,0.06,0.03,0.09,0.03l0.21,0.01c0.05,0,0.11-0.02,0.15-0.05l0.24-0.23c0.04-0.04,0.06-0.09,0.07-0.14l0.02-0.44
				c0-0.05-0.01-0.11-0.05-0.14l-0.2-0.23l-0.12-0.3l1.17,0.89c0.02,0.02,0.04,0.03,0.07,0.03l0.92,0.25l0.93,0.05
				c0.11,0.01,0.21-0.08,0.21-0.19l0.02-0.44c0-0.06-0.02-0.12-0.06-0.16l-0.16-0.16l0.01-0.15c0.01-0.11-0.08-0.21-0.19-0.21
				l-0.03,0l0.01-0.24c0-0.05-0.01-0.1-0.04-0.14l-0.04-0.05l-0.81-0.93l-0.23-0.22c-0.08-0.07-0.19-0.07-0.27-0.01l-0.23,0.19
				c-0.03,0.03-0.06,0.06-0.06,0.1l-0.4-0.17c-0.02-0.01-0.05-0.01-0.07-0.02l-0.6-0.03l-0.36-0.4c-0.01-0.01-0.03-0.03-0.05-0.04
				l-0.42-0.24l-0.43-0.45c-0.06-0.06-0.14-0.08-0.22-0.05c-0.08,0.02-0.13,0.1-0.13,0.18l-0.03,0.63l-0.09,0.18l-1.12-0.82
				c-0.07-0.05-0.14-0.06-0.21-0.02c-0.07,0.03-0.11,0.1-0.11,0.17l-0.01,0.25l-0.15-0.01l-0.18-0.18
				c-0.03-0.04-0.08-0.06-0.14-0.07l-0.64-0.03c-0.11-0.01-0.21,0.08-0.22,0.19l0,0.03l-0.41-0.02l-0.4-0.42
				c-0.01-0.01-0.03-0.03-0.04-0.03l-0.46-0.27l-0.68-0.25c-0.05-0.02-0.1-0.01-0.15,0l-0.41,0.17l-0.4-0.02
				c-0.05,0-0.11,0.01-0.14,0.05l-0.1,0.09L121,19.86c-0.05-0.06-0.12-0.08-0.2-0.06l-0.7,0.17c-0.06,0.02-0.12,0.06-0.14,0.13
				c-0.03,0.06-0.02,0.13,0.02,0.19l0.28,0.41l-0.35-0.39l0.01-0.15c0-0.06-0.02-0.12-0.06-0.16l-0.23-0.22
				c-0.07-0.07-0.19-0.08-0.28-0.01l-0.16,0.14l-0.16-0.01c-0.11-0.01-0.21,0.08-0.21,0.19l-0.02,0.37l-0.09,0.1l-1.39-0.07
				l-0.14-0.35c-0.01-0.02-0.03-0.05-0.04-0.07l-0.23-0.24c-0.03-0.04-0.08-0.06-0.14-0.06l-1.31-0.07l-0.34-0.19l-0.78-1.34
				l-0.81-1.87c-0.03-0.07-0.11-0.12-0.18-0.12c-0.04,0.01-0.11,0.02-0.15,0.06l-0.07-0.57c-0.01-0.1-0.1-0.17-0.19-0.18
				c-0.1-0.01-0.19,0.06-0.21,0.16l-0.14,0.58l-0.1-1.28c-0.01-0.1-0.09-0.19-0.2-0.19c-0.01,0-0.01,0-0.01,0
				c-0.11,0-0.2,0.08-0.2,0.19l0,0.19l-0.07,0.22c0-0.02,0-0.04-0.01-0.06l-0.2-0.41l0.02-0.39c0-0.09-0.05-0.17-0.13-0.21
				c-0.09-0.05-0.18,0-0.24,0.07l-0.44,0.63l0,0l-0.08,0.07l-0.03-0.03l0.01-0.14c0-0.01,0-0.02,0-0.03l0.11,0.12l-0.11-0.12
				c0-0.02,0-0.05-0.01-0.07l-0.2-0.41l0.02-0.39c0.01-0.11-0.07-0.19-0.16-0.21c-0.09-0.02-0.2,0.04-0.23,0.13l-0.07,0.21
				l-0.16,0.47c-0.01,0.02-0.01,0.04-0.01,0.06L110,15.74l-0.29-0.31l-0.18-0.62l0.02-0.41c0-0.03,0-0.06-0.01-0.09l-0.19-0.45
				c-0.01-0.02-0.02-0.04-0.04-0.06l-0.38-0.4l0.02-0.39c0-0.06-0.02-0.11-0.06-0.15l-0.22-0.22c-0.04-0.04-0.08-0.06-0.14-0.06
				l-0.04,0l0.01-0.25l0.01-0.22c0-0.04-0.01-0.09-0.03-0.12l-0.34-0.52l-0.92-1.41l-1.52-1.44l-0.2-0.21
				c-0.07-0.06-0.17-0.08-0.26-0.03c-0.08,0.05-0.12,0.16-0.08,0.25l0.37,0.97l-0.11-0.08l-0.67-0.5l-0.39-0.24l-0.19-0.39
				c-0.01-0.02-0.02-0.03-0.03-0.04l-0.19-0.23l-0.1-0.26l0.23-0.11l0.09,0l0.38,0.43c0.04,0.04,0.09,0.06,0.14,0.06l0.23,0.01
				c0.11,0.01,0.21-0.08,0.21-0.19l0.02-0.37l0.09-0.08l0.15,0.01c0.06,0,0.11-0.02,0.16-0.06l0.16-0.15l0.07-0.07
				c0.07-0.07,0.08-0.19,0.01-0.28l-0.61-0.7l-0.43-0.7c-0.05-0.08-0.17-0.14-0.23-0.09l-0.67,0.19l-0.62-0.03
				c-0.02,0-0.05,0-0.07,0.01l-0.63,0.19l-1.05-0.28l-0.95-0.29l-0.17-0.01l-0.42-0.23c-0.09-0.05-0.18-0.03-0.24,0.04l-0.15,0.14
				l-0.84-0.04c-0.02,0-0.05,0-0.07,0.01l-0.66,0.2c-0.03,0.01-0.05,0.02-0.08,0.04l-0.19,0.17l-0.27-0.01l-0.17-0.19
				c-0.02-0.02-0.03-0.03-0.05-0.04L96.8,5.15c-0.03-0.02-0.06-0.03-0.09-0.03l-0.89-0.05c-0.11-0.01-0.21,0.08-0.21,0.19L95.6,5.41
				l-0.04,0.03l-0.51-0.57c-0.08-0.09-0.2-0.09-0.29-0.02l-0.24,0.21c-0.04,0.04-0.07,0.09-0.07,0.15l-0.01,0.23
				c0,0.02,0,0.04,0,0.06l-2.73,0.04c-0.11,0-0.2,0.08-0.2,0.19L91.5,5.96c-0.01,0.11,0.08,0.21,0.19,0.21l0.84,0.04l-0.11,0.1
				c-0.04,0.03-0.06,0.09-0.07,0.14l-0.01,0.22l-4.07-0.41c-0.03,0-0.06,0-0.1,0.01l-0.49,0.2l-0.7,0.42
				c-0.08,0.05-0.11,0.14-0.09,0.22l0,0C86.91,7.22,86.99,7.28,87.08,7.28z M91.02,8.17l0.07,0.07l-0.16-0.01l-0.19-0.08L91.02,8.17
				z"/>
			<polygon id="XMLID_35_" points="137.28,26.07 134.88,24.58 132.9,23.34 134.88,24.58 			"/>
			<path id="XMLID_34_" d="M86.56,7.49c-0.15,0.19-0.33,0.36-0.49,0.54c-0.16,0.18-0.31,0.37-0.46,0.56
				c0.14-0.19,0.3-0.38,0.46-0.56C86.23,7.85,86.41,7.68,86.56,7.49z"/>
			<path id="XMLID_16_" d="M163.95,39.66l-0.2-0.67l0.01-0.21c0-0.06-0.02-0.12-0.07-0.16l-0.17-0.16l-0.16-0.69l-0.25-0.48
				l-0.38-0.45l0.01-0.16l0.04,0c0.11,0.01,0.21-0.08,0.21-0.19l0.1-1.8c0-0.06-0.02-0.12-0.06-0.15l-0.39-0.41l-0.21-4.46
				l0.02-0.43c0-0.08-0.03-0.15-0.1-0.19l-0.41-0.25l-0.19-0.22c-0.06-0.07-0.16-0.1-0.24-0.05l-0.42,0.19l-0.67-0.03l-1.1,0.18
				l-1.99-0.1l-1.31-0.54c-0.02-0.01-0.04-0.01-0.06-0.01l-0.24-0.01c-0.03,0-0.06,0-0.09,0.02l-0.87,0.41l-0.58-0.03l-0.83-0.5
				c-0.03-0.02-0.06-0.03-0.09-0.03l-0.48-0.03c-0.03,0-0.06,0-0.1,0.02l-0.89,0.43l-0.45,0.17c-0.05,0.02-0.1,0.06-0.12,0.12
				l-0.26,0.65l-0.76,1.3l-0.04,0.04l-0.08,0.07l-0.15-0.01c-0.02,0-0.04,0-0.05,0l-0.15,0.03l-0.7,0.12l0.7-0.12l-0.73,0.16
				l-1.04-0.05l-0.12-0.08l-1.57-1.11c-0.03-0.02-0.07-0.03-0.11-0.04l-0.15-0.01l-0.14-0.18c-0.02-0.02-0.04-0.04-0.07-0.06
				l-0.44-0.22l-0.43-0.26c-0.03-0.02-0.06-0.03-0.1-0.03l-1.32-0.07l-0.39-0.24c-0.03-0.02-0.06-0.03-0.1-0.03l-0.2-0.01
				c-0.03,0-0.06,0-0.09,0.02l-0.44,0.19l-0.69-0.04l-0.15-0.01c-0.11-0.01-0.21,0.08-0.21,0.19l-0.01,0.14l-0.19,0.15l-0.16,0.16
				l-0.29-0.02l-0.13-0.17c-0.04-0.06-0.1-0.08-0.15-0.08l-0.64-0.03l-0.39-0.2c-0.03-0.01-0.05-0.01-0.1-0.02l-4.07-0.02
				c-0.03,0-0.06,0-0.08,0.02l-0.44,0.2l-0.69,0.18c-0.03,0.01-0.06,0.03-0.08,0.05l-0.45,0.41l-0.44,0.16l-0.72,0.22l-0.41,0.19
				l-0.89-0.04l-0.88,0.15l-0.45-0.02c-0.04,0-0.07,0-0.1,0.02l-0.44,0.21l-0.42,0.17l-0.36-0.02l-0.42-0.21
				c-0.03-0.02-0.09-0.03-0.14-0.02l-0.68,0.17l-0.09,0l-0.2-0.2l-0.43-0.26c-0.03-0.02-0.06-0.03-0.1-0.03l-0.65-0.03l-0.64-0.23
				c-0.02-0.01-0.04-0.01-0.06-0.01l-0.34-0.02l0.07-0.15l0.21-0.16c0.07-0.06,0.1-0.14,0.07-0.22c-0.03-0.08-0.1-0.14-0.19-0.14
				l-1.72-0.09l-0.39-0.44l-0.23-0.23c-0.03-0.04-0.08-0.06-0.13-0.06l-0.44-0.02c-0.03,0-0.06,0-0.09,0.01l-0.46,0.19
				c-0.02,0.01-0.04,0.02-0.06,0.04l-0.23,0.2l-0.38,0.18l-0.64-0.03c-0.02,0-0.04,0-0.06,0l-0.66,0.16l-0.16-0.01l-0.41-0.21
				c-0.02-0.01-0.05-0.02-0.08-0.02l-0.12-0.01l-0.18-0.18c-0.03-0.04-0.08-0.06-0.14-0.07l-0.45-0.02c-0.04,0-0.08,0.01-0.11,0.02
				l-1.21,0.65l-0.92,0.81l-0.57,0.16l-0.39-0.23l-0.62-0.23l-0.16-0.2c-0.02-0.02-0.04-0.04-0.06-0.06l-0.31-0.16l0.03-0.56
				c0-0.06-0.02-0.11-0.06-0.15l-0.23-0.24c-0.03-0.04-0.08-0.06-0.14-0.07l-0.63-0.03l-0.38-0.24c-0.03-0.02-0.06-0.03-0.1-0.03
				l-0.64-0.03l-0.71-0.41l0.02-0.47l0.1-0.09l0.38,0.02l1.38-0.16c0.08-0.01,0.16-0.07,0.17-0.15c0.02-0.08-0.01-0.17-0.08-0.21
				l-0.61-0.45l-0.21-0.24c-0.02-0.02-0.04-0.04-0.06-0.05l-0.46-0.25c-0.03-0.01-0.06-0.02-0.09-0.02l-0.2-0.01
				c-0.01,0-0.02,0-0.03,0c0-0.01,0-0.02,0-0.03l0.01-0.2c0.01-0.11-0.08-0.21-0.19-0.21l-0.09,0l-0.17-0.38
				c-0.01-0.02-0.02-0.04-0.03-0.05l-0.39-0.45l-0.21-0.43c0-0.01-0.01-0.03-0.03-0.04l-0.21-0.26l-0.11-0.1
				c0.05,0,0.09-0.02,0.13-0.06l0.07-0.08l0.08,0.09c0.04,0.04,0.09,0.06,0.14,0.07c0.08-0.01,0.12-0.02,0.16-0.07l0.21-0.23
				c0.06-0.06,0.07-0.14,0.04-0.21l-0.17-0.45c-0.01-0.02-0.02-0.05-0.04-0.07l-0.43-0.47c-0.02-0.02-0.03-0.03-0.05-0.04
				l-0.78-0.44l0.01-0.1c0-0.03,0-0.06-0.02-0.09l-0.2-0.45c-0.01-0.02-0.02-0.04-0.03-0.05l-0.22-0.26
				c-0.02-0.02-0.03-0.04-0.06-0.05l-0.4-0.21l-0.2-0.23c-0.01-0.01-0.03-0.03-0.05-0.04l-0.39-0.23l-0.16-0.36l0.01-0.16
				c0-0.08-0.03-0.15-0.1-0.19l-0.43-0.26c-0.03-0.02-0.06-0.03-0.1-0.03l-0.15-0.01l-0.14-0.18c-0.01-0.01-0.01-0.01-0.01-0.01
				l-0.22-0.22l-0.19-0.24c-0.03-0.05-0.09-0.07-0.15-0.08l-0.18-0.01l-0.65-0.46l-0.63-0.26l-0.17-0.19
				c-0.04-0.04-0.09-0.06-0.14-0.07l-0.24-0.01c-0.02,0-0.04,0-0.06,0l-1.06-1.6c-0.03-0.05-0.09-0.09-0.16-0.09l-0.6-0.03
				l-1.07-0.48c-0.02-0.01-0.05-0.01-0.07-0.02l-0.28-0.01l-0.69,0.1l0.02-0.4c0-0.07-0.03-0.14-0.08-0.18
				c-0.06-0.03-0.12-0.05-0.2-0.02l-0.32,0.13l-0.1-0.12c-0.04-0.04-0.09-0.06-0.14-0.07l-0.48-0.03c-0.03,0-0.06,0-0.09,0.01
				l-0.41,0.17l-0.09,0l-0.17-0.17c-0.02-0.02-0.04-0.04-0.06-0.04l-0.67-0.28c-0.02-0.01-0.05-0.01-0.07-0.02l-0.45-0.02
				c-0.05,0-0.11,0.02-0.15,0.05l-0.4,0.37l-0.48-0.03l-0.14-0.31l0.01-0.15c0-0.05-0.01-0.09-0.04-0.13l-0.19-0.25
				c-0.03-0.05-0.09-0.08-0.15-0.08l-0.24-0.01c-0.02,0-0.04,0-0.05,0l-0.87,0.19l-0.71-0.03l-0.92,0.16
				c-0.02,0-0.05,0.01-0.07,0.02l-0.65,0.4l-0.49,0.22c-0.02,0.01-0.04,0.02-0.06,0.04l-0.2,0.21l-0.27,0.2l-0.26,0.24l-0.15,0.16
				l-0.82-0.04c-0.03,0-0.06,0-0.09,0.01l-0.47,0.19c-0.03,0.01-0.05,0.03-0.07,0.05l-0.18,0.2l-0.44,0.15
				c-0.05,0.02-0.1,0.06-0.12,0.1l-0.23,0.46l-0.23,0.38l-0.39,0.14c-0.08,0.03-0.13,0.1-0.13,0.18l0,0.04l-0.03,0
				c-0.06,0-0.11,0.02-0.15,0.06l-0.23,0.22c-0.01,0.01-0.02,0.03-0.03,0.04l-0.24,0.41l-0.42,0.38l-0.45,0.2l-0.68,0.4l-0.68,0.2
				c-0.08,0.02-0.14,0.09-0.14,0.17c-0.01,0.09,0.03,0.17,0.11,0.2l0.33,0.17l-0.13,0.12l-0.79,0.17l-0.07,0.02
				c-0.08,0.02-0.14,0.09-0.16,0.17c-0.02,0.08,0.03,0.16,0.1,0.21l0.12,0.07l0.31,0.18c0.03,0.02,0.06,0.03,0.09,0.03l0.13,0.01
				l-0.07,0.12l-0.22,0.2c-0.02,0.02-0.03,0.04-0.04,0.06l-0.21,0.4l-0.21,0.16c-0.04,0.03-0.08,0.09-0.08,0.14
				c-0.01,0.06,0.01,0.12,0.05,0.16L83,21.98c0.01,0.01,0.03,0.03,0.04,0.04l0.1,0.06v0l0.24,0.15l-0.23,0.2l-0.19,0.16l-0.41,0.39
				l-0.15-0.01c-0.11-0.01-0.21,0.08-0.22,0.19L82.14,24l-0.22,0.38l-0.44,0.43c-0.06,0.06-0.08,0.14-0.05,0.22
				c0.02,0.08,0.1,0.13,0.18,0.13l0.68,0.04c0.02,0,0.05,0,0.07-0.01l0.66-0.2L83.19,25c0.04,0,0.07-0.01,0.1-0.03
				c0,0,0.01,0,0.01,0l0.62-0.36l-0.01,0.18l-0.22,0.37l-0.34,0.46l-0.12,0.16L82.8,26l-0.26,0.2l-0.26,0.27l-0.52,0.86
				c-0.02,0.03-0.03,0.06-0.03,0.1l-0.03,0.48c0,0.08,0.04,0.16,0.12,0.2c0.07,0.02,0.16,0.03,0.22-0.03l0.23-0.2l0.03-0.02
				l-0.42,1.35c-0.02,0.07-0.01,0.15,0.04,0.2l0.17,0.19l0,0.07l-0.24,0.42c-0.02,0.03-0.03,0.06-0.03,0.09l-0.02,0.44
				c0,0.05,0.01,0.11,0.05,0.14l0.23,0.27l0.2,0.21c0.04,0.04,0.09,0.06,0.14,0.06c0.08,0.01,0.14-0.03,0.17-0.08l0.45-0.62
				l0.66-0.6l0.25,0.01v0l0.06,0l-0.04,0.11L83.6,31.1c-0.01,0.02-0.01,0.04-0.02,0.06l-0.03,0.64L83,33.83
				c-0.01,0.03-0.01,0.06,0,0.09l0.35,2.04c0.01,0.08,0.07,0.14,0.15,0.17c0.08,0,0.16-0.02,0.21-0.08l0.45-0.62l0.21-0.19
				l0.28,1.23l-0.03,0.62l-0.23,0.64c-0.01,0.05-0.02,0.1,0,0.15l0.16,0.42l-0.01,0.19c-0.01,0.11,0.08,0.21,0.19,0.21l0.44,0.02
				l0.33,0.12c-0.04,0.04-0.06,0.08-0.06,0.14c0,0.05,0.01,0.11,0.05,0.15L86.28,40l0,0.08l-0.17,0.17
				c-0.04,0.03-0.06,0.08-0.06,0.13l-0.01,0.2c0,0.08,0.03,0.15,0.1,0.19l0.33,0.2l-0.01,0.12c0,0.06,0.02,0.11,0.06,0.15l0.17,0.17
				l-0.02,0.34c0,0.05,0.01,0.09,0.04,0.14l0.17,0.21l0.21,0.47c0.03,0.06,0.08,0.1,0.14,0.12c0.03,0.01,0.14-0.01,0.18-0.05
				l0.21-0.19l0.15-0.06l-0.01,0.13c0,0.03,0,0.06,0.01,0.09l0.18,0.44c0.03,0.06,0.08,0.1,0.13,0.12c0.07,0.03,0.13,0.01,0.18-0.03
				l0.27-0.2l0.09-0.09l0.18,1.15c0.01,0.09,0.08,0.16,0.17,0.17c0.01,0,0.02,0,0.02,0c0.08,0,0.15-0.04,0.19-0.11l0.22-0.41
				l0.49,0.85l-0.07,1.31C89.82,45.9,89.91,46,90.02,46l0.02,0.01c0,0.05,0.02,0.11,0.05,0.15l0.17,0.18l-0.03,0.6
				c-0.01,0.11,0.08,0.21,0.19,0.21l0.24,0.01c0.11,0.01,0.21-0.08,0.21-0.19l0-0.03c0.04,0,0.08-0.01,0.11-0.03l0.12,0.16
				l-0.05,1.04c0,0.08,0.04,0.16,0.11,0.19c0.08,0.04,0.17,0.04,0.23-0.03l0.14-0.12l-0.02,0.44c-0.01,0.11,0.08,0.21,0.19,0.21
				l0.56,0.03l0.18,0.2l0.17,0.15l-0.04,0.84c0,0.05,0.02,0.11,0.05,0.15l0.16,0.18l0.42,0.93c0.03,0.07,0.1,0.11,0.17,0.11
				l0.86,0.05l1.95,0.77c0.09,0.05,0.19,0.01,0.25-0.08l0.17-0.26l0.17,0.29c0.01,0.02,0.03,0.05,0.05,0.06l0.66,0.5
				c0.06,0.04,0.14,0.05,0.21,0.02c0.07-0.03,0.11-0.1,0.11-0.17l0.06-1.16l0.25,0.01c0.11,0.01,0.2-0.07,0.21-0.17l0.34-2.06
				l-0.13-2.09l-0.89-4.53l0.04-0.77l0.35-0.16c0.03-0.02,0.07-0.04,0.09-0.08l0.26-0.42c0.02-0.03,0.03-0.06,0.03-0.1l0.11-2.05
				c0-0.06-0.02-0.12-0.06-0.16l-0.16-0.16l0.02-0.42l-0.64-4.76l0.09-1.77c0-0.04,0-0.06-0.02-0.09l-0.2-0.45l-0.16-0.67l0.01-0.13
				l0.21-0.4c0.01-0.03,0.02-0.06,0.02-0.09l0.09-1.8l0.46-4.08l0.03-0.59l0.41-0.36c0.04-0.04,0.06-0.09,0.06-0.14l0.02-0.44
				l0.47-1.02l0.44-0.37l0.44-0.2c0.02-0.01,0.04-0.02,0.05-0.03l0.45-0.41l0.21-0.17l0.43-0.19l0.41,0.02l1.31-0.15l0.82,0.49
				l0.39,0.2l0.15,0.39c0.01,0.02,0.02,0.04,0.03,0.05l0.44,0.51l0.22,0.22l0.38,0.45l0.22,0.47c0.01,0.02,0.02,0.04,0.04,0.06
				l0.62,0.67l0.13,0.34c-0.02,0-0.05,0.01-0.08,0.02l-0.48,0.21c-0.05,0.02-0.09,0.06-0.11,0.11c-0.01,0.05-0.02,0.11,0.01,0.16
				l0.41,0.91l0.17,0.63l-0.06,1.1c0,0.03,0,0.06,0.01,0.09l0.19,0.45l-0.01,0.15c0,0.05,0.01,0.1,0.05,0.14l0.2,0.25
				c0.04,0.04,0.09,0.07,0.15,0.07l0.16,0.01l0.17,0.17c0.04,0.04,0.08,0.06,0.14,0.06l-0.05,0.95c0,0.06,0.02,0.12,0.06,0.16
				l0.27,0.24l0,0l0.08,0.05l-0.07,0.03v0l0,0c-0.02,0.01-0.04,0.02-0.06,0.04L107.24,30c-0.04,0.03-0.06,0.09-0.07,0.14l-0.01,0.24
				c0,0.06,0.02,0.12,0.06,0.15l0.16,0.16l-0.01,0.15c-0.01,0.11,0.08,0.21,0.19,0.21l0.24,0.01l0.01,0l0,0.01l-0.02,0.47
				c0,0.02,0,0.05,0.01,0.06l0.2,0.7c0,0.03,0.02,0.06,0.04,0.08l0.36,0.4l-0.01,0.13c0,0.05,0.02,0.11,0.05,0.15l0.17,0.18
				l-0.05,1.04c0,0.05,0.01,0.1,0.04,0.14l0.23,0.28l0.2,0.17l0.2,0.27l0.45,0.48l0.07,0.09l-0.32,0.29
				c-0.04,0.04-0.06,0.09-0.07,0.14l-0.01,0.24c0,0.06,0.02,0.11,0.06,0.15l0.23,0.23c0.04,0.04,0.08,0.06,0.14,0.06l-0.03,0.71
				c0,0.02,0,0.05,0.01,0.07l0.2,0.67c0.01,0.02,0.02,0.05,0.04,0.07l0.39,0.48l0.58,1.53l-0.02,0.4c-0.01,0.11,0.08,0.21,0.19,0.22
				l0.15,0.01l0.15,0.2l0.17,0.15l-0.06,1.06c0,0.03,0,0.06,0.01,0.09l0.18,0.45l0.2,0.68c0.01,0.03,0.02,0.05,0.04,0.08l2.22,2.46
				l-0.83,0.74l-0.96,1.09c-0.05,0.06-0.06,0.14-0.03,0.21c0.03,0.07,0.1,0.12,0.18,0.13l0.4,0.02l0.15,0.08l-0.02,0.03
				c-0.04,0.04-0.06,0.08-0.06,0.14L113,48.83c0,0.06,0.02,0.11,0.05,0.15l0.18,0.2l0.18,0.41l-0.03,0.56l-0.22,0.39l-0.2,0.18
				c-0.04,0.04-0.06,0.09-0.07,0.14l-0.02,0.44c0,0.05,0.01,0.1,0.04,0.14l0.15,0.19l-0.02,0.3l-0.17,0.16
				c-0.04,0.03-0.06,0.08-0.06,0.14l-0.04,0.67c0,0.05,0.01,0.11,0.04,0.14l0.19,0.21l0.38,0.9c0.02,0.04,0.05,0.08,0.09,0.1
				l0.43,0.22l0.42,0.49l0.21,0.18l0.19,0.25c0.02,0.02,0.04,0.04,0.06,0.06l0.33,0.2l0,0.09c-0.01,0.11,0.08,0.21,0.19,0.21
				l1.56,0.08l1.15,0.31l2.92,0.36c0,0,0.01,0,0.01,0c0.01,0,0.01,0,0.02,0l2.7-0.06l2,0.11c0.03,0,0.06,0,0.09-0.01l0.96-0.4
				c0.02-0.01,0.04-0.03,0.06-0.04l0.24-0.23c0.04-0.04,0.06-0.09,0.07-0.14l0.04-0.67c0-0.03,0-0.06-0.02-0.09l-0.15-0.33
				l0.29-0.25l0.41,0.02l2.72-0.33l0.2,0.01c0.08,0,0.15-0.03,0.19-0.1l0.24-0.42l0.19-0.16c0.04-0.04,0.07-0.09,0.07-0.15
				l0.05-0.93c0-0.05-0.01-0.1-0.05-0.14l-0.2-0.25c-0.02-0.02-0.04-0.04-0.06-0.06l-0.86-0.47l-0.66-0.51l-0.9-0.49
				c-0.03-0.01-0.06-0.02-0.09-0.02l-1.03-0.05l-0.38-0.42c-0.01-0.01-0.03-0.03-0.04-0.03l-0.34-0.2l0.14-0.14l0.45-0.2
				c0.02-0.01,0.04-0.02,0.06-0.04l0.19-0.19l0.45-0.17l2.29-1.24l1.99-0.32l2.91,0.15l0.83,0.27l0.59,0.42l0.62,0.69l0.42,0.68
				c0.01,0.02,0.03,0.04,0.05,0.06l0.62,0.49l1.05,1.16l0.42,0.71l0.42,0.65l0.15,0.64l-0.03,0.64c0,0.02,0,0.05,0.01,0.06
				l0.21,0.73l0.19,0.44c0.02,0.05,0.06,0.08,0.11,0.1l0.65,0.27l0.44,0.24c0.03,0.01,0.06,0.02,0.09,0.02l0.01,0l7.24,0.17
				l0.69,0.04c0.04,0,0.07,0,0.1-0.02l0.45-0.22c0.04-0.02,0.07-0.04,0.09-0.08l0.24-0.39l0.47-0.42l0.21-0.22
				c0.04-0.05,0.06-0.11,0.05-0.18c0-0.04-0.02-0.07-0.05-0.1l0.43-0.09l0.92-0.4c0.02-0.01,0.04-0.02,0.05-0.03l0.24-0.23
				c0.02-0.02,0.03-0.03,0.04-0.06l0.1-0.19l0.3,0.3l0.42,0.26c0.03,0.02,0.06,0.03,0.1,0.03l0.21,0.01c0.08,0,0.16-0.04,0.19-0.11
				c0.04-0.07,0.03-0.16-0.02-0.22l-0.15-0.19l0-0.07l0.1-0.08l0.16,0.01c0.07,0,0.14-0.03,0.18-0.09c0.04-0.06,0.05-0.13,0.02-0.2
				l-0.21-0.47c-0.02-0.04-0.04-0.07-0.08-0.09l-0.46-0.28l-0.7-0.29l-1.1-0.26l-1.1-0.29l-0.64-0.23l-0.4-0.25l-0.39-0.42
				l-0.21-0.46c0-0.02-0.01-0.04-0.03-0.05l-0.17-0.19l-0.18-0.39l0.1-1.97L149.5,47l0.46-0.65l0.44-0.37l0.97-0.67l0.92-0.82
				l0.45-0.21l0.73-0.43l0.46-0.43l0.51-0.42c0.03-0.02,0.05-0.06,0.06-0.09l0.21-0.64l0.27-0.45l0.22-0.43l0.37-0.31l1.64,0.71
				l0.88,0.51l1.11,0.51c0.02,0.01,0.05,0.01,0.07,0.02l0.9,0.05c0.03,0,0.06,0,0.09-0.01l0.49-0.2l0.4-0.19l0.19,0.01
				c0.05,0,0.11-0.01,0.15-0.05l0.16-0.14l0.59,0.03c0.03,0,0.06,0,0.09-0.02l0.47-0.21c0.04-0.02,0.07-0.04,0.09-0.08l0.24-0.39
				l0.49-0.49l0.27-0.43c0.02-0.03,0.03-0.06,0.03-0.1l0.05-0.89C163.96,39.71,163.96,39.69,163.95,39.66z M85.36,22.86l-0.48,0.66
				l0.04-0.69l0.01-0.2l0.21,0.01l0.45-0.21L85.36,22.86z M92.05,16.17l0.93-0.6l1.16-0.61l0.23,0.01l0.43,0.22l0.23,0.25
				l-0.24-0.01l-0.21,0.23l0.17,0.47l-0.2-0.01l-0.25,0.18l-0.2-0.66l-0.68,0.43l-0.51,0.65l-0.22-0.01l-0.44-0.02l-0.23-0.26
				L92.05,16.17z M91.72,22.3l-0.01,0.24l-0.27,0.64l-0.5,0.91l-0.17-0.47l0.01-0.23L91,22.95l0.27-0.67l0.22,0.01l0.24-0.23
				L91.72,22.3z M92.66,26.2l-0.03,0.48l-0.26,0.42l-0.24,0.44l0.32-2.01l0.24,0.01L92.66,26.2z M95.74,18.88l-0.21,0.22l-0.25,0.21
				l-0.24,0.46l-0.25,0.19l0.45,0.02l0.23,0.26l-0.01,0.2l-1.16,0.62l-0.03,0.48l-0.25,0.2l-0.46,0.22l-0.25,0.19l-0.21,0.23
				l-0.23-0.25l-0.23-0.21l0.01-0.24l0.26-0.44l-0.23-0.25l0.91,0.05l0.69,0.04l0.02-0.44l0.21-0.23l0.26-0.44l-0.44-0.02
				l-0.24-0.01l-0.26,0.44l-0.21-0.01l0.01-0.2l-0.45,0.18l-0.48-0.03l-1.68,1.73l-0.2-0.01l0.75-1.77l-0.21-0.22l0.24-0.23
				l0.01-0.2l0.23,0.01l0.01-0.24l-0.44-0.26l0.02-0.45l0.22,0.01l0.24-0.2l0.26-0.23l0.2,0.01l0.7-0.2l0.45-0.2l-0.02,0.45
				l-0.22,0.44l-0.53,0.89L93,19.66l0.24,0.01l0.45-0.21l0.46-0.21l0.47-0.42l1.65-0.82l0.2,0.23l-0.02,0.47l-0.21-0.01L95.74,18.88
				z M96.45,26.88l-0.2-0.01l0.08-1.6l0.2,0.01L96.45,26.88z M97.28,15.8l-0.69,0.18l-0.21-0.01l0.22-0.2l0.01-0.24l0.44,0.02
				l0.24,0.01L97.28,15.8z M161.98,37.67l-0.18-0.41c0-0.02-0.02-0.04-0.03-0.05l-0.62-0.72l-0.79-1.79l-0.12-1.83l-0.59-1.84
				c-0.01-0.03-0.02-0.05-0.04-0.08l-0.16-0.18l0.01-0.26l0.15,0.08c0.02,0.01,0.05,0.02,0.08,0.02l0.15,0.01l0.57,0.63l0.39,0.66
				l0.2,0.67l0.52,2.99l0.18,0.7c0,0.02,0.01,0.04,0.03,0.05l0.39,0.65l0.19,0.65l0.11,0.54L161.98,37.67z"/>
		</g>
	</g>
	<path id="XMLID_10_" d="M474.3,55.04l-3.71,43.17h-0.19l-3.93-43.17h-20.01l-4.12,43.17h-0.23l-3.71-43.17h-14.02l5.58,50.17
		c2.96-2,8.36-5.6,11-5.79c3.42-0.25,7.14-0.17,9.02,0.21c1.88,0.38,2.34,0.29,2.34,0.29s0.75,0.17,0.84,0.38
		c0.08,0.21-0.29,2.13-0.17,2.3c0.1,0.13,0.28,0.3,0.41,0.3l0.14-1.39c-0.02-0.63-0.05-1.24-0.05-1.24s0.07-0.06,0.19-0.16
		l0.38-3.81c-0.02-0.02-0.03-0.04-0.03-0.04c-0.47-0.67-1.07-1.24-1.55-1.91c-0.55-0.75-0.69-1.39-0.82-2.31
		c-0.39-2.83-0.79-6.67,1.04-9.1c0.25-0.33,0.5-0.38,0.5-0.88s-0.25-0.5-0.38-0.63c-0.13-0.13-0.13-1.21,0.29-1.71
		c0.29-0.35,1.46-0.68,2.64-0.32l0.6-5.96h0.21l0.7,6.91c1.46,1.63,2.17,6.3,2.17,7.01c0,0.71,0.21,7.6,0.21,7.6
		c1.65,0.82,3.35,2.03,5.09,2.54c0.12,0.04,0.24,0.09,0.35,0.16c0.7,0.44,2.08,2.34,2.08,3.19c0,0.46-0.13,0.96,0.08,1.25
		c0.21,0.29,1.63,2.92,1.63,2.92s0.58,0.67,0.25,1.42c-0.33,0.75-0.63,1.04-0.92,1.34c-0.29,0.29-0.92,0.63-0.92,0.63
		s-2.42,0.71-2.96,0.67c0,0,0.13,1.42-0.81,3.42h18.44l6.39-57.45H474.3z"/>
	<path id="XMLID_6_" d="M90.93,77.01c0.95-1.65,1.5-3.04,1.28-3.63c-0.5-1.31-1.55-1.29-5.49,0.1c-3.73,1.32-8.83,5.15-9.45,7.11
		c-0.39,1.23-0.8,1.29-4.01,0.54c-4.74-1.11-5.35-1.58-6.98-5.37c-1.31-3.05-4.33-5.96-6.78-6.83c-0.05-0.02-0.09-0.04-0.14-0.05
		c-0.47-0.15-0.91-0.23-1.32-0.21c0,0-0.01,0-0.01,0c0,0-0.01,0-0.02,0c0,0-0.01,0-0.01,0c0,0-0.01,0-0.01,0c0,0-0.01,0-0.01,0
		s-0.01,0-0.01,0c0,0,0,0.01,0,0.01c0,0-0.01,0-0.01,0c0,0-0.01,0-0.01,0c-0.05,0-0.1,0.01-0.15,0.02
		c-1.57,0.22-1.73,0.62-1.65,4.05c0.12,4.9,2.63,9.99,5.26,10.65c1.8,0.45,1.9,0.69,1.41,3.58c-0.29,1.71-1.04,3.9-1.67,4.86
		c-1.4,2.13-0.37,5.06,2.05,5.83c3.61,1.15-0.26,3.11-5.4,2.74c-1.54-0.11-4,0.24-5.47,0.77c-2.33,0.84-3.29,0.75-7.79-0.72
		c-6.2-2.03-14.52-2.33-18.41-0.69c-1.49,0.63-3.91,2.2-5.39,3.5c-3.1,2.72-4.75,2.97-5.86,0.9c-1.01-1.89-1-7.95,0.03-11.65
		c0.43-1.54,0.6-2.98,0.42-3.29c0,0-0.01-0.02-0.01-0.02c0,0-0.01-0.01-0.01-0.01c-0.83-0.83-5.8,3.74-6.88,6.33
		c-1.48,3.55-1.21,6.25,0.9,8.84c0.96,1.18,4.55,6.66,4.26,8.12c-0.55,2.73,1.42,6.27,4.56,8.2c3.14,1.94,4.62,5.09,3.62,7.68
		c-0.39,1.01-1.97,2.95-3.51,4.3c-2.07,1.82-2.66,2.81-2.24,3.78c0.55,1.26,3.11,15.74,2.17,31.29c-0.24,4,0.68,8,1.16,8.88
		c0.68,1.27,1.57,1.6,4.23,1.6c3.56,0,4.35-1.01,2.07-2.67c-1.48-1.08-2.19-6.12-2.9-20.39c-0.12-2.51-0.17-4.68-0.11-6.56
		c0.89,2.48,2.41,5.69,4.12,9.14c1.98,3.99,4.02,7.53,4.54,7.86c0.52,0.33,0.95,1.45,0.95,2.48c0,1.24,0.57,2.11,1.7,2.56
		c4.01,1.61,6.52-0.18,4.06-2.9c-0.67-0.75-1.22-1.71-1.22-2.16c0-0.45-1.24-2.63-2.76-4.86c-1.51-2.23-3.76-6.17-4.98-8.76
		c-1.86-3.94-2.18-5.47-1.97-9.26c0.07-1.31-0.41-3.63-0.99-5.22c0.76-0.82,1.66-1.59,2.73-2.34c2.07-1.46,5.12-3.97,6.8-5.59
		l3.05-2.94l7.8-0.09c1.5-0.02,2.72-0.02,3.72-0.01c0.06,0.7,0.09,1.79-0.01,3.41c-0.22,3.47-1.03,9.37-1.03,9.37
		c-0.58,7.52-1.4,12.87-2.43,15.88c-1.74,5.04-1.65,9.25,0.23,12.12c0.85,1.3,1.91,1.87,3.47,1.87c2.14,0,3-1.27,1.71-2.56
		c0,0-0.01-0.01-0.01-0.01c-0.3-0.34-0.92-2.06-1.37-3.86c-1.12-4.4-0.1-11.99,2.32-17.18c1.02-2.19,1.86-5,1.87-6.25
		c0.01-1.25,0.37-3.57,0.81-5.16c0.16-0.58,0.72-2.58,1.32-4.13c1.03,2.19,1.62,5.39,1.64,9.08c0.01,1.97,0.51,4.86,1.1,6.43
		c1.22,3.24,2.7,11.58,2.7,15.27c0,1.36,0.69,3.34,1.53,4.4c0.88,1.12,1.34,2.52,1.09,3.31c-0.33,1.04,0.23,1.64,2.35,2.53
		c5.42,2.27,7.52,1.12,4.51-2.46c-4.76-5.66-7.33-16.87-7.45-32.62l-0.09-11.15l3.18-3.61c1.92-2.18,3.37-4.7,3.68-6.36
		c0.28-1.51,1.1-3.6,1.83-4.64c0.73-1.04,1.83-3.61,2.45-5.72c0.63-2.11,1.82-5.35,2.65-7.19c0.83-1.84,1.75-4.81,2.05-6.6
		c0.45-2.7,1.03-3.56,3.52-5.13C85.9,84.19,89.12,80.14,90.93,77.01L90.93,77.01L90.93,77.01z"/>
</g>
</svg>
